# File created by Blade
# Date/Time:  Tue Jan 27 17:21:46 2015
#---------------------------------------------------------
:version 1.10
:name HOM
:units
  mass 1.0
  length 1.000000
  angle deg
:documentation
     Acclaim Skeleton File
:root
   axis xyz
   order TX TY TZ RX RY RZ
   position 0.000000 0.000000 0.000000
   orientation 0 0 0
:bonedata
   begin
      id 1
      name Spine_dum
      direction 0.000000 1.000000 0.000000
      length 7.539951
      axis 0.0 0.0 0.0 xyz
   end
   begin
      id 2
      name LeftUpLeg_dum
      direction 1.000000 0.000000 0.000000
      length 3.345476
      axis 0.0 0.0 0.0 xyz
   end
   begin
      id 3
      name RightUpLeg_dum
      direction -1.000000 0.000000 0.000000
      length 3.345476
      axis 0.0 0.0 0.0 xyz
   end
   begin
      id 4
      name Spine
      direction 0.000000 1.000000 0.000000
      length 0.000000
      axis 0.0 0.0 0.0 xyz
      dof rx ry rz
   end
   begin
      id 5
      name Spine_dum1
      direction 0.000000 1.000000 0.000000
      length 15.093809
      axis 0.0 0.0 0.0 xyz
   end
   begin
      id 6
      name Spine_dum2
      direction 0.000000 1.000000 0.000000
      length 9.738928
      axis 0.0 0.0 0.0 xyz
   end
   begin
      id 7
      name Spine_dum3
      direction 0.000000 1.000000 0.000000
      length 9.738928
      axis 0.0 0.0 0.0 xyz
   end
   begin
      id 8
      name Head
      direction 0.000000 1.000000 0.000000
      length 4.527550
      axis 0.0 0.0 0.0 xyz
      dof rx ry rz
   end
   begin
      id 9
      name LeftShoulder
      direction 1.000000 0.000000 0.000000
      length 7.084015
      axis 0.0 0.0 -90.0 xyz
      dof rx ry rz
   end
   begin
      id 10
      name LeftArm
      direction 1.000000 0.000000 0.000000
      length 10.259319
      axis 0.0 0.0 -90.0 xyz
      dof rx ry rz
   end
   begin
      id 11
      name LeftForeArm
      direction 1.000000 0.000000 0.000000
      length 9.896984
      axis 0.0 0.0 -90.0 xyz
      dof ry rz rx
   end
   begin
      id 12
      name LeftHand
      direction 0.000000 0.000000 0.000000
      length 0.000000
      axis 0.0 0.0 -90.0 xyz
      dof rx ry rz
   end
   begin
      id 13
      name LeftHand_dum1
      direction 0.000000 0.000000 0.000000
      length 0.000000
      axis 0.0 0.0 -90.0 xyz
   end
   begin
      id 14
      name LeftHand_dum2
      direction 1.000000 0.000000 0.000000
      length 3.937000
      axis 0.0 0.0 -90.0 xyz
   end
   begin
      id 15
      name LeftHandThumb1
      direction 0.000000 0.000000 1.000000
      length 3.937000
      axis 0.0 0.0 -90.0 xyz
      dof rx rz ry
   end
   begin
      id 16
      name RightShoulder
      direction -1.000000 0.000000 0.000000
      length 7.084015
      axis 0.0 0.0 90.0 xyz
      dof rx ry rz
   end
   begin
      id 17
      name RightArm
      direction -1.000000 0.000000 0.000000
      length 10.259319
      axis 0.0 0.0 90.0 xyz
      dof rx ry rz
   end
   begin
      id 18
      name RightForeArm
      direction -1.000000 0.000000 0.000000
      length 9.896984
      axis 0.0 0.0 90.0 xyz
      dof ry rz rx
   end
   begin
      id 19
      name RightHand
      direction 0.000000 0.000000 0.000000
      length 0.000000
      axis 0.0 0.0 90.0 xyz
      dof rx ry rz
   end
   begin
      id 20
      name RightHand_dum1
      direction 0.000000 0.000000 0.000000
      length 0.000000
      axis 0.0 0.0 90.0 xyz
   end
   begin
      id 21
      name RightHand_dum2
      direction -1.000000 0.000000 0.000000
      length 3.937000
      axis 0.0 0.0 90.0 xyz
   end
   begin
      id 22
      name RightHandThumb1
      direction 0.000000 0.000000 1.000000
      length 3.937000
      axis 0.0 0.0 90.0 xyz
      dof rx rz ry
   end
   begin
      id 23
      name LeftUpLeg
      direction 0.000000 -1.000000 0.000000
      length 19.114733
      axis 0.0 0.0 0.0 xyz
      dof rx ry rz
   end
   begin
      id 24
      name LeftLeg
      direction 0.000000 -1.000000 0.000000
      length 16.045604
      axis 0.0 0.0 0.0 xyz
      dof rx ry rz
   end
   begin
      id 25
      name LeftFoot
      direction 0.000000 -0.258819 0.965926
      length 5.543155
      axis 15.0 0.0 0.0 xyz
      dof rx ry rz
   end
   begin
      id 26
      name LeftToeBase
      direction 0.000000 0.000000 1.000000
      length 2.952750
      axis 0.0 0.0 0.0 xyz
      dof rx ry rz
   end
   begin
      id 27
      name RightUpLeg
      direction 0.000000 -1.000000 0.000000
      length 19.114733
      axis 0.0 0.0 0.0 xyz
      dof rx ry rz
   end
   begin
      id 28
      name RightLeg
      direction 0.000000 -1.000000 0.000000
      length 16.045604
      axis 0.0 0.0 0.0 xyz
      dof rx ry rz
   end
   begin
      id 29
      name RightFoot
      direction 0.000000 -0.258819 0.965926
      length 5.543155
      axis 15.0 0.0 0.0 xyz
      dof rx ry rz
   end
   begin
      id 30
      name RightToeBase
      direction 0.000000 0.000000 1.000000
      length 2.952750
      axis 0.0 0.0 0.0 xyz
      dof rx ry rz
   end
:hierarchy
   begin
      root Spine_dum LeftUpLeg_dum RightUpLeg_dum
      Spine_dum Spine
      LeftUpLeg_dum LeftUpLeg
      RightUpLeg_dum RightUpLeg
      Spine Spine_dum1 Spine_dum2 Spine_dum3
      Spine_dum1 Head
      Spine_dum2 LeftShoulder
      Spine_dum3 RightShoulder
      LeftShoulder LeftArm
      LeftArm LeftForeArm
      LeftForeArm LeftHand
      LeftHand LeftHand_dum1 LeftHand_dum2
      LeftHand_dum1 LeftHandThumb1
      RightShoulder RightArm
      RightArm RightForeArm
      RightForeArm RightHand
      RightHand RightHand_dum1 RightHand_dum2
      RightHand_dum1 RightHandThumb1
      LeftUpLeg LeftLeg
      LeftLeg LeftFoot
      LeftFoot LeftToeBase
      RightUpLeg RightLeg
      RightLeg RightFoot
      RightFoot RightToeBase
   end

# File created by Blade
# Date/Time:  Tue Jan 27 17:21:37 2015
# Frame Rate: 120.000 fps
#------------------------------------------------------
:FULLY-SPECIFIED
:DEGREES
1583
root -2.613778 36.358844 -1.360126 3.255277 -4.280614 -3.142302
Spine 3.769106 11.200559 1.528599
Head 3.721723 -2.615263 6.815785
LeftShoulder -3.923972 -12.941340 11.302208
LeftArm -6.424233 -24.977687 -37.106189
LeftForeArm 1.698450 -0.000000 72.896585
LeftHand -18.159997 -0.000000 48.343925
LeftHandThumb1 -26.253704 0.000000 33.147579
RightShoulder -6.364652 -17.107395 4.233005
RightArm 21.326931 -17.573851 44.663892
RightForeArm 170.730575 0.000000 34.889953
RightHand 0.223416 -0.000000 -2.884557
RightHandThumb1 -24.326973 -0.000000 -32.862282
LeftUpLeg -52.315264 14.317006 4.396346
LeftLeg 67.899865 -0.000000 -0.000000
LeftFoot -3.783881 5.711715 -28.747005
LeftToeBase 15.569679 -0.000000 -0.000000
RightUpLeg -11.484796 -14.722072 11.775272
RightLeg 18.765469 -0.000000 -0.000000
RightFoot -16.439778 -8.244150 -3.957326
RightToeBase 4.090721 -0.000000 -0.000000
1584
root -2.611020 36.359083 -1.357606 3.209809 -4.304674 -3.117236
Spine 3.761039 11.251632 1.496902
Head 3.781548 -2.664990 6.832901
LeftShoulder -3.903969 -12.969959 11.297820
LeftArm -6.456947 -24.878001 -37.093055
LeftForeArm 1.627197 0.000000 72.985058
LeftHand -18.147372 0.000000 48.323693
LeftHandThumb1 -26.253704 0.000000 33.147579
RightShoulder -6.329689 -17.113075 4.220355
RightArm 21.370611 -17.642112 44.646271
RightForeArm 170.739199 -0.000000 34.839231
RightHand 0.209900 0.000000 -2.900855
RightHandThumb1 -24.326973 -0.000000 -32.862282
LeftUpLeg -52.291342 14.194205 4.484599
LeftLeg 68.238031 -0.000000 -0.000000
LeftFoot -4.223372 5.974117 -28.493296
LeftToeBase 15.760088 -0.000000 -0.000000
RightUpLeg -11.448591 -14.693579 11.733140
RightLeg 18.795870 -0.000000 -0.000000
RightFoot -16.462038 -8.266083 -3.934558
RightToeBase 4.084944 -0.000000 -0.000000
1585
root -2.607479 36.359402 -1.354224 3.150475 -4.341439 -3.089919
Spine 3.775763 11.305180 1.467073
Head 3.819875 -2.708585 6.842520
LeftShoulder -3.893294 -12.966484 11.294827
LeftArm -6.444508 -24.830963 -37.116969
LeftForeArm 1.649845 0.000000 73.039180
LeftHand -18.149753 0.000000 48.375936
LeftHandThumb1 -26.253704 0.000000 33.147579
RightShoulder -6.303363 -17.124308 4.218801
RightArm 21.449701 -17.709223 44.606745
RightForeArm 170.746487 0.000000 34.802582
RightHand 0.249427 -0.000000 -2.960636
RightHandThumb1 -24.326973 -0.000000 -32.862282
LeftUpLeg -52.234479 14.070509 4.591497
LeftLeg 68.565571 -0.000000 -0.000000
LeftFoot -4.406424 6.210837 -28.479240
LeftToeBase 14.834500 -0.000000 -0.000000
RightUpLeg -11.397784 -14.664822 11.684496
RightLeg 18.828372 -0.000000 -0.000000
RightFoot -16.481961 -8.294380 -3.924822
RightToeBase 4.102341 -0.000000 -0.000000
1586
root -2.604918 36.359311 -1.352170 3.101154 -4.377779 -3.069706
Spine 3.779966 11.347799 1.444811
Head 3.867689 -2.703931 6.878944
LeftShoulder -3.901897 -12.908464 11.282300
LeftArm -6.377423 -24.861658 -37.171681
LeftForeArm 1.700311 -0.000000 73.094173
LeftHand -18.180505 -0.000000 48.385261
LeftHandThumb1 -26.253704 0.000000 33.147579
RightShoulder -6.275452 -17.113268 4.210503
RightArm 21.533592 -17.821838 44.539849
RightForeArm 170.709957 -0.000000 34.788666
RightHand 0.440283 -0.000000 -3.008127
RightHandThumb1 -24.326973 -0.000000 -32.862282
LeftUpLeg -52.209201 13.974056 4.684182
LeftLeg 68.930746 -0.000000 -0.000000
LeftFoot -4.722367 6.364860 -28.414702
LeftToeBase 15.402267 -0.000000 -0.000000
RightUpLeg -11.361989 -14.646431 11.646497
RightLeg 18.872516 -0.000000 -0.000000
RightFoot -16.497550 -8.309005 -3.946869
RightToeBase 4.109350 -0.000000 -0.000000
1587
root -2.601916 36.359026 -1.351360 3.059355 -4.423612 -3.043353
Spine 3.781132 11.388860 1.414887
Head 3.902970 -2.712276 6.878507
LeftShoulder -3.908224 -12.921745 11.274440
LeftArm -6.345084 -24.840283 -37.197714
LeftForeArm 1.832061 -0.000000 73.085484
LeftHand -18.230998 -0.000000 48.777752
LeftHandThumb1 -26.253704 0.000000 33.147579
RightShoulder -6.252626 -17.114698 4.208690
RightArm 21.644917 -17.883723 44.470324
RightForeArm 170.637826 -0.000000 34.760785
RightHand 0.399186 -0.000000 -3.115372
RightHandThumb1 -24.326973 -0.000000 -32.862282
LeftUpLeg -52.200719 13.889012 4.774263
LeftLeg 69.303671 -0.000000 -0.000000
LeftFoot -4.993874 6.537512 -28.033213
LeftToeBase 15.680711 -0.000000 -0.000000
RightUpLeg -11.340935 -14.641929 11.608306
RightLeg 18.920475 -0.000000 -0.000000
RightFoot -16.528407 -8.304884 -3.938322
RightToeBase 4.138122 -0.000000 -0.000000
1588
root -2.598622 36.358238 -1.350920 3.025526 -4.478671 -3.023846
Spine 3.774591 11.425095 1.394210
Head 3.918185 -2.737267 6.809130
LeftShoulder -3.916157 -12.914116 11.259904
LeftArm -6.378610 -24.908535 -37.221038
LeftForeArm 1.803759 -0.000000 73.177103
LeftHand -18.200858 -0.000000 48.368001
LeftHandThumb1 -26.253704 0.000000 33.147579
RightShoulder -6.227916 -17.104922 4.192036
RightArm 21.749646 -17.943489 44.424245
RightForeArm 170.593304 -0.000000 34.748839
RightHand 0.402697 0.000000 -3.131112
RightHandThumb1 -24.326973 -0.000000 -32.862282
LeftUpLeg -52.189504 13.828667 4.855354
LeftLeg 69.669582 -0.000000 -0.000000
LeftFoot -5.156421 6.649909 -27.819741
LeftToeBase 15.423085 -0.000000 -0.000000
RightUpLeg -11.329935 -14.640713 11.581273
RightLeg 18.973568 -0.000000 -0.000000
RightFoot -16.543454 -8.315012 -3.971063
RightToeBase 4.124135 -0.000000 -0.000000
1589
root -2.597562 36.356514 -1.349906 2.985256 -4.549528 -3.009604
Spine 3.773247 11.480941 1.376765
Head 3.949981 -2.738299 6.781958
LeftShoulder -3.901056 -12.892246 11.251884
LeftArm -6.395378 -24.996814 -37.249275
LeftForeArm 1.852819 0.000000 73.214257
LeftHand -18.202620 0.000000 48.331127
LeftHandThumb1 -26.253704 0.000000 33.147579
RightShoulder -6.218840 -17.097765 4.177690
RightArm 21.869047 -17.997600 44.381168
RightForeArm 170.560585 -0.000000 34.735421
RightHand 0.406969 0.000000 -3.113082
RightHandThumb1 -24.326973 -0.000000 -32.862282
LeftUpLeg -52.174529 13.803908 4.937614
LeftLeg 70.072144 -0.000000 -0.000000
LeftFoot -5.247764 6.721298 -28.150300
LeftToeBase 14.647638 -0.000000 -0.000000
RightUpLeg -11.307598 -14.634585 11.559881
RightLeg 19.023763 -0.000000 -0.000000
RightFoot -16.563626 -8.313063 -4.020872
RightToeBase 4.135052 -0.000000 -0.000000
1590
root -2.594168 36.354483 -1.350224 2.947315 -4.616080 -2.992722
Spine 3.778639 11.500419 1.369045
Head 3.940127 -2.798380 6.600121
LeftShoulder -3.905353 -12.897153 11.235183
LeftArm -6.446251 -25.096086 -37.258460
LeftForeArm 1.957543 0.000000 73.246227
LeftHand -18.218585 0.000000 48.196580
LeftHandThumb1 -26.253704 0.000000 33.147579
RightShoulder -6.186566 -17.089288 4.158138
RightArm 21.994841 -18.039099 44.302133
RightForeArm 170.536517 -0.000000 34.761102
RightHand 0.420218 -0.000000 -3.269371
RightHandThumb1 -24.326973 -0.000000 -32.862282
LeftUpLeg -52.177738 13.784149 5.003707
LeftLeg 70.473387 -0.000000 -0.000000
LeftFoot -5.391513 6.790251 -28.048295
LeftToeBase 15.187883 -0.000000 -0.000000
RightUpLeg -11.296587 -14.653956 11.534459
RightLeg 19.086976 -0.000000 -0.000000
RightFoot -16.595733 -8.284334 -4.041795
RightToeBase 4.140236 -0.000000 -0.000000
1591
root -2.590336 36.353723 -1.349138 2.891435 -4.695749 -2.961612
Spine 3.799803 11.535410 1.339278
Head 3.991645 -2.727559 6.630230
LeftShoulder -3.889245 -12.923535 11.223896
LeftArm -6.527230 -25.209617 -37.262188
LeftForeArm 2.045076 -0.000000 73.279476
LeftHand -18.209158 -0.000000 48.175216
LeftHandThumb1 -26.253704 0.000000 33.147579
RightShoulder -6.147318 -17.072355 4.145669
RightArm 22.108362 -18.067735 44.245893
RightForeArm 170.607248 -0.000000 34.779944
RightHand 0.455939 0.000000 -3.307680
RightHandThumb1 -24.326973 -0.000000 -32.862282
LeftUpLeg -52.160311 13.801061 5.036822
LeftLeg 70.893522 -0.000000 -0.000000
LeftFoot -5.475910 6.844282 -27.877115
LeftToeBase 15.234274 -0.000000 -0.000000
RightUpLeg -11.264808 -14.707354 11.489342
RightLeg 19.148107 -0.000000 -0.000000
RightFoot -16.624269 -8.225146 -4.066375
RightToeBase 4.084626 -0.000000 -0.000000
1592
root -2.588583 36.352241 -1.350213 2.861458 -4.756098 -2.934098
Spine 3.796379 11.537090 1.304141
Head 4.015469 -2.640994 6.628012
LeftShoulder -3.887914 -12.953607 11.216862
LeftArm -6.633071 -25.330158 -37.242589
LeftForeArm 2.047707 0.000000 73.315628
LeftHand -18.198097 0.000000 48.089457
LeftHandThumb1 -26.253704 0.000000 33.147579
RightShoulder -6.109461 -17.050892 4.130301
RightArm 22.231644 -18.111896 44.180573
RightForeArm 170.629707 -0.000000 34.813312
RightHand 0.390866 0.000000 -3.191148
RightHandThumb1 -24.326973 -0.000000 -32.862282
LeftUpLeg -52.170881 13.819016 5.066740
LeftLeg 71.289709 -0.000000 -0.000000
LeftFoot -5.557674 6.904990 -27.762029
LeftToeBase 15.502239 -0.000000 -0.000000
RightUpLeg -11.272160 -14.801273 11.461799
RightLeg 19.224264 -0.000000 -0.000000
RightFoot -16.661058 -8.145635 -4.146902
RightToeBase 4.151927 -0.000000 -0.000000
1593
root -2.586256 36.350466 -1.351019 2.833084 -4.826120 -2.911422
Spine 3.788438 11.539834 1.282914
Head 4.030247 -2.563788 6.515490
LeftShoulder -3.894204 -12.952503 11.192617
LeftArm -6.706621 -25.454763 -37.213066
LeftForeArm 2.172658 -0.000000 73.323725
LeftHand -18.300888 0.000000 48.084240
LeftHandThumb1 -26.253704 0.000000 33.147579
RightShoulder -6.074193 -17.047088 4.122211
RightArm 22.358655 -18.116610 44.099640
RightForeArm 170.557406 -0.000000 34.888377
RightHand 0.423859 -0.000000 -3.239131
RightHandThumb1 -24.326973 -0.000000 -32.862282
LeftUpLeg -52.183042 13.868430 5.080542
LeftLeg 71.703305 -0.000000 -0.000000
LeftFoot -5.513362 6.928918 -27.607715
LeftToeBase 15.059435 -0.000000 -0.000000
RightUpLeg -11.283564 -14.893555 11.437635
RightLeg 19.308006 -0.000000 -0.000000
RightFoot -16.705567 -8.044249 -4.159947
RightToeBase 4.128464 -0.000000 -0.000000
1594
root -2.583372 36.348358 -1.352358 2.802507 -4.885186 -2.883955
Spine 3.795058 11.519453 1.266088
Head 4.009234 -2.506097 6.417585
LeftShoulder -3.919526 -12.954616 11.159463
LeftArm -6.780916 -25.578831 -37.172872
LeftForeArm 2.235910 -0.000000 73.337941
LeftHand -18.394492 0.000000 47.994035
LeftHandThumb1 -26.253704 0.000000 33.147579
RightShoulder -6.050463 -17.025728 4.100982
RightArm 22.506960 -18.141311 44.018120
RightForeArm 170.574393 -0.000000 34.950394
RightHand 0.358043 -0.000000 -3.210869
RightHandThumb1 -24.326973 -0.000000 -32.862282
LeftUpLeg -52.193832 13.915072 5.087283
LeftLeg 72.121806 -0.000000 -0.000000
LeftFoot -5.442644 6.922939 -27.346516
LeftToeBase 14.694493 -0.000000 -0.000000
RightUpLeg -11.295173 -15.003582 11.407204
RightLeg 19.392189 -0.000000 -0.000000
RightFoot -16.744246 -7.941238 -4.218555
RightToeBase 4.099155 -0.000000 -0.000000
1595
root -2.580489 36.346030 -1.353160 2.764934 -4.956134 -2.855698
Spine 3.807035 11.533490 1.248318
Head 3.991968 -2.530240 6.241633
LeftShoulder -3.913592 -12.979216 11.125323
LeftArm -6.885937 -25.705001 -37.126086
LeftForeArm 2.264401 -0.000000 73.361707
LeftHand -18.354899 0.000000 47.950455
LeftHandThumb1 -26.253704 0.000000 33.147579
RightShoulder -6.033180 -16.980086 4.067004
RightArm 22.619888 -18.149199 43.981403
RightForeArm 170.529121 -0.000000 35.033362
RightHand 0.401368 -0.000000 -3.302287
RightHandThumb1 -24.326973 -0.000000 -32.862282
LeftUpLeg -52.191206 13.983007 5.078591
LeftLeg 72.519408 -0.000000 -0.000000
LeftFoot -5.473030 6.939979 -27.408425
LeftToeBase 14.742817 -0.000000 -0.000000
RightUpLeg -11.298357 -15.101854 11.372383
RightLeg 19.477978 -0.000000 -0.000000
RightFoot -16.794105 -7.830166 -4.265387
RightToeBase 4.126825 -0.000000 -0.000000
